<?xml version="1.0" encoding="UTF-8"?>
<svg id="Laag_1" xmlns="http://www.w3.org/2000/svg" version="1.1" viewBox="0 0 1000 1000">
  <!-- Generator: Adobe Illustrator 29.3.1, SVG Export Plug-In . SVG Version: 2.1.0 Build 151)  -->
  <defs>
    <style>
      .st0 {
        display: none;
        fill: #fff;
      }
    </style>
  </defs>
  <path class="st0" d="M933.26,222.19v629.59H42.7V222.19h890.57ZM252.17,256.84c-13.06.62-23.47,10.38-24.78,23.42v393.21c1.34,13.8,11.38,23.15,25.12,24.1h337.95c33.04,16.76,64.51,38.5,97.37,55.36,19.08,9.79,37.2,1.38,39.94-20.1v-452.07c-1.47-14.19-11.59-23.14-25.63-24.1l-449.97.17Z"/>
  <path d="M252.17,256.84l449.97-.17c14.04.96,24.16,9.91,25.62,24.1v452.07c-2.74,21.48-20.86,29.89-39.94,20.1-32.86-16.86-64.34-38.6-97.37-55.35H252.51c-13.73-.96-23.78-10.31-25.12-24.11v-393.21c1.31-13.04,11.72-22.8,24.78-23.42ZM677,307.93h-398.85v338.39h320.96c1.21,0,5.25,1.05,6.62,1.5l71.28,40.1v-379.99Z"/>
  <path class="st0" d="M677,307.93v379.99l-71.28-40.1c-1.37-.45-5.41-1.5-6.62-1.5h-320.96v-338.39h398.85ZM535.93,581.88l-90.58-226.78-1.5-.53h-45.73s-1.7.84-1.7.84l-88.35,226.47h48.46l19.11-51.15,90.01-.12,20.02,51.28h50.24ZM558.77,354.6v227.28h46.18v-227.28h-46.18Z"/>
  <path d="M535.93,581.88h-50.24l-20.02-51.28-90.01.12-19.11,51.15h-48.46l88.35-226.47,1.7-.84h45.73s1.5.53,1.5.53l90.58,226.78ZM451.7,492.09l-30.96-83.71-30.95,83.71h61.91Z"/>
  <rect x="558.77" y="354.6" width="46.18" height="227.28"/>
  <polygon class="st0" points="451.7 492.09 389.79 492.09 420.74 408.38 451.7 492.09"/>
</svg>