<?xml version="1.0" encoding="UTF-8"?>
<svg version="1.1" xmlns="http://www.w3.org/2000/svg" width="2134" height="1492">
<path d="M0 0 C1.10656915 0.94036305 2.211969 1.88210217 3.31688786 2.82440376 C3.93258516 3.34868371 4.54828247 3.87296366 5.18263727 4.41313088 C7.84986415 6.74207706 10.34987082 9.2180161 12.84350586 11.72998047 C13.38097443 12.26730301 13.91844299 12.80462555 14.47219849 13.35823059 C16.22213208 15.10885266 17.96851137 16.86297368 19.71484375 18.6171875 C20.93773316 19.84194489 22.1608457 21.06647953 23.38417053 22.290802 C26.58385956 25.49428634 29.78053248 28.70076366 32.9765625 31.90789795 C36.246212 35.18782616 39.5187384 38.46488126 42.79101562 41.7421875 C49.19681119 48.15866765 55.59942049 54.578317 62 61 C60.7335495 65.02643232 59.25054813 68.74764062 57.36132812 72.52026367 C56.83317505 73.57964645 56.30502197 74.63902924 55.76086426 75.73051453 C54.9047052 77.43205437 54.9047052 77.43205437 54.03125 79.16796875 C53.43000465 80.36926349 52.82905835 81.57070796 52.22839355 82.77229309 C50.9665845 85.29434947 49.7021112 87.81504523 48.43554688 90.3347168 C46.84257984 93.50390707 45.25472532 96.67562193 43.66867828 99.84827995 C38.24608516 110.69294591 32.82440351 121.53561176 27.125 132.23828125 C22.66052169 140.62976225 18.3997012 149.12039235 14.15625 157.625 C13.80675797 158.3254072 13.45726593 159.0258144 13.09718323 159.74744606 C10.56194498 164.83021548 8.03059247 169.91491634 5.5 175 C2.61714095 180.7929436 -0.26725166 186.58511524 -3.15625 192.375 C-3.5025005 193.06900091 -3.84875099 193.76300182 -4.20549393 194.47803307 C-9.00135076 204.08310117 -13.88158327 213.63721901 -18.94091797 223.10668945 C-22.43562509 229.66499561 -25.7100245 236.33734013 -29 243 C-15.89952904 236.88916035 -2.97290179 230.4988875 9.875 223.875 C11.68656955 222.94386482 13.49825764 222.01296022 15.31005859 221.08227539 C26.56037317 215.30009493 37.79834617 209.49397688 49.02880859 203.67333984 C59.17080231 198.41943124 69.33438067 193.2080213 79.5 188 C90.61608687 182.30424275 101.73014018 176.60479295 112.82495117 170.86767578 C114.59678579 169.9520797 116.36967385 169.03852314 118.14257812 168.125 C123.54854538 165.33341944 128.93074044 162.50870872 134.2734375 159.59765625 C135.24587402 159.07244385 136.21831055 158.54723145 137.22021484 158.00610352 C139.01109893 157.03579226 140.79585497 156.05404027 142.57275391 155.05834961 C143.35312012 154.63690674 144.13348633 154.21546387 144.9375 153.78125 C145.60652344 153.41064453 146.27554687 153.04003906 146.96484375 152.65820312 C149.79296666 151.74354149 151.15399709 152.08567506 154 153 C156.15331807 154.76417296 158.05356107 156.49639006 159.99951172 158.46606445 C160.57730881 159.03524597 161.1551059 159.60442749 161.75041199 160.19085693 C163.65381204 162.07158749 165.54213311 163.96665737 167.4296875 165.86328125 C168.74721893 167.17557893 170.06527033 168.48735476 171.38381958 169.79862976 C174.14247235 172.54687748 176.89351027 175.30248165 179.63964844 178.06323242 C183.1654773 181.60628033 186.7112934 185.12853056 190.26325798 188.64535236 C192.98806267 191.34824023 195.70112605 194.06267361 198.41083145 196.78069115 C199.71401828 198.08470002 201.02107879 199.38484922 202.33199692 200.68108559 C204.15918135 202.49092352 205.96977127 204.31587449 207.77685547 206.14575195 C208.59800591 206.94936409 208.59800591 206.94936409 209.43574524 207.76921082 C210.91403198 209.2858429 210.91403198 209.2858429 213 212 C212.70171021 215.50005385 211.15662058 217.22025895 208.73341656 219.64969349 C208.0302464 220.36192029 207.32707624 221.07414709 206.60259789 221.80795652 C205.82226766 222.58295883 205.04193742 223.35796114 204.23796082 224.15644836 C203.41505108 224.98544921 202.59214134 225.81445005 201.74429494 226.66857213 C199.45658076 228.97007719 197.16222618 231.2647154 194.86488664 233.55660546 C192.38977913 236.02904717 189.92328695 238.51005806 187.4556427 240.98994446 C182.61956283 245.84709773 177.77523637 250.69594462 172.92771884 255.54168043 C168.98953865 259.47855426 165.05391921 263.41797013 161.12011147 267.35921288 C159.9880537 268.49336976 158.85599518 269.62752589 157.7239359 270.76168126 C157.1605334 271.32612729 156.5971309 271.89057331 156.0166556 272.47212376 C145.3569985 283.15069004 134.68737427 293.81925483 124.01485059 304.48495945 C114.24228484 314.25194593 104.4829964 324.03207877 94.72978326 333.81838725 C84.72276301 343.85910109 74.70653606 353.89054541 64.68034059 363.91211289 C59.04840688 369.54179794 53.42031068 375.17519936 47.80193138 380.81841469 C43.02018415 385.62111886 38.22990417 390.41510271 33.42819449 395.19785199 C30.97681071 397.6400442 28.52969526 400.08615445 26.09319687 402.54320526 C23.45445978 405.19995137 20.8009761 407.84100297 18.14299011 410.47846985 C17.36935204 411.26462577 16.59571397 412.05078169 15.79863232 412.86076051 C15.08763892 413.55994857 14.37664552 414.25913664 13.64410686 414.97951221 C13.03253977 415.5913517 12.42097267 416.20319118 11.79087323 416.83357126 C10 418 10 418 7.90670758 417.80069703 C5.18805665 416.65903496 3.57972439 414.93817029 1.50683594 412.84741211 C0.62622498 411.96657455 -0.25438599 411.085737 -1.16168213 410.1782074 C-2.11315825 409.21141209 -3.06446868 408.24445369 -4.015625 407.27734375 C-4.99574256 406.29162903 -5.97652603 405.30657603 -6.95794678 404.32215881 C-9.53578484 401.73288151 -12.10448579 399.13472118 -14.67138672 396.53460693 C-17.29369405 393.88157894 -19.92454378 391.2370522 -22.5546875 388.59179688 C-27.71152295 383.40281353 -32.85873515 378.20441608 -38 373 C-36.49191128 369.46668244 -34.4443918 367.19747834 -31.73532104 364.49481201 C-30.84067139 363.59741302 -29.94602173 362.70001404 -29.02426147 361.77542114 C-28.03042687 360.78866426 -27.03649666 359.80200366 -26.04248047 358.81542969 C-24.99743417 357.77094764 -23.95282829 356.72602478 -22.90863037 355.68069458 C-20.07445727 352.84594754 -17.23415901 350.01741025 -14.39272833 347.18994045 C-11.42362069 344.23333334 -8.46017396 341.27106341 -5.49612427 338.30938721 C0.11678277 332.70269692 5.7347687 327.10112448 11.35459316 321.50136876 C17.75265569 315.12565912 24.14504171 308.74427112 30.53695512 302.36239767 C43.68499314 289.23526608 56.84014971 276.11528931 70 263 C54.9735666 270.09435226 54.9735666 270.09435226 40.0234375 277.34765625 C38.63387848 278.0289006 38.63387848 278.0289006 37.21624756 278.72390747 C35.26714246 279.67954894 33.31829061 280.63570709 31.36968994 281.59237671 C26.19061006 284.1348389 21.00936421 286.67287936 15.828125 289.2109375 C14.80296783 289.71318344 13.77781067 290.21542938 12.72158813 290.7328949 C4.19984619 294.90611004 -4.3336548 299.05458232 -12.875 303.1875 C-25.69881178 309.3935326 -38.50845017 315.6282942 -51.3125 321.875 C-52.22183289 322.31854828 -53.13116577 322.76209656 -54.0680542 323.21908569 C-56.64576292 324.47651388 -59.22331153 325.7342695 -61.80078125 326.9921875 C-62.5720787 327.36848801 -63.34337616 327.74478851 -64.13804626 328.13249207 C-65.21113792 328.65641289 -65.21113792 328.65641289 -66.3059082 329.19091797 C-67.23582329 329.644814 -67.23582329 329.644814 -68.18452454 330.10787964 C-70.04908999 330.98922698 -70.04908999 330.98922698 -71.91838074 332.17556763 C-74.7306579 333.28937954 -76.15302733 332.96820829 -79 332 C-81.1265564 330.40156555 -81.1265564 330.40156555 -83.25537109 328.30981445 C-84.05905121 327.52842606 -84.86273132 326.74703766 -85.69076538 325.94197083 C-86.54304718 325.09100327 -87.39532898 324.24003571 -88.2734375 323.36328125 C-89.15657623 322.49108444 -90.03971497 321.61888763 -90.94961548 320.72026062 C-93.28901732 318.40078208 -95.61758913 316.07098024 -97.9440918 313.73858643 C-99.37457433 312.31292424 -100.81525943 310.89849093 -102.26025391 309.48754883 C-105.03264525 306.77612826 -107.78072691 304.04218538 -110.5234375 301.30078125 C-111.38786469 300.45993484 -112.25229187 299.61908844 -113.14291382 298.75276184 C-113.92768097 297.95561264 -114.71244812 297.15846344 -115.52099609 296.3371582 C-116.21873138 295.64290237 -116.91646667 294.94864655 -117.63534546 294.23335266 C-119 292 -119 292 -118.82836914 288.98391724 C-118.12519058 286.45095636 -117.38750984 284.26630646 -116.22509766 281.92016602 C-115.85984985 281.17313919 -115.49460205 280.42611237 -115.11828613 279.65644836 C-114.72089233 278.86360947 -114.32349854 278.07077057 -113.9140625 277.25390625 C-113.50136108 276.41470139 -113.08865967 275.57549652 -112.66345215 274.71086121 C-111.32428847 271.99122969 -109.97460002 269.27696525 -108.625 266.5625 C-107.69816012 264.68370991 -106.77221912 262.80447613 -105.84716797 260.92480469 C-104.03600758 257.24502674 -102.22208069 253.56663541 -100.40625 249.88916016 C-97.60012861 244.19759383 -94.84748531 238.4820807 -92.125 232.75 C-88.13217271 224.36138518 -84.10530479 215.98962101 -80.0625 207.625 C-69.98788467 186.77575875 -59.98382536 165.89285026 -50 145 C-53.37792395 147.62790016 -56.48794333 150.36399699 -59.5115509 153.39129639 C-60.38508209 154.26345291 -61.25861328 155.13560944 -62.15861511 156.03419495 C-63.11335849 156.99247664 -64.06805354 157.95080649 -65.02270508 158.90917969 C-66.03799309 159.92475002 -67.05350184 160.94009971 -68.06921387 161.95524597 C-70.81694126 164.70268714 -73.56158031 167.4531947 -76.30566621 170.20427227 C-79.17729953 173.0821682 -82.05177591 175.95722161 -84.9259491 178.83258057 C-90.36414186 184.27387807 -95.79978103 189.71771909 -101.23450249 195.16248345 C-107.42357401 201.36274271 -113.61549436 207.56015361 -119.80765307 213.75732946 C-132.54160301 226.50172439 -145.27197933 239.24968356 -158 252 C-161.95061816 248.66677105 -165.81475168 245.31044081 -169.46655273 241.64697266 C-170.2668541 240.84659576 -171.06715546 240.04621887 -171.89170837 239.22158813 C-172.73053055 238.37760468 -173.56935272 237.53362122 -174.43359375 236.6640625 C-175.31153091 235.78471039 -176.18946808 234.90535828 -177.0940094 233.99935913 C-179.87754412 231.21025942 -182.65756769 228.41768982 -185.4375 225.625 C-187.33216665 223.7247458 -189.2275963 221.82525347 -191.12304688 219.92578125 C-195.75135161 215.28649396 -200.37678421 210.64435833 -205 206 C-200.48807901 200.59307623 -195.71123255 195.57178196 -190.72366333 190.60340881 C-189.90590986 189.78480092 -189.08815639 188.96619303 -188.24562252 188.12277883 C-185.99206743 185.86786825 -183.73629959 183.61519964 -181.47955132 181.36348569 C-179.04018659 178.92845943 -176.60373311 176.49052316 -174.16691589 174.052948 C-169.9501205 169.83562951 -165.73150529 165.62013861 -161.51163101 161.40590096 C-155.41048381 155.31289792 -149.31211604 149.21711919 -143.21441232 143.12067025 C-133.32002816 133.22847203 -123.4234152 123.33850673 -113.52539062 113.44995117 C-103.91321311 103.84695963 -94.30209162 94.24291318 -84.69238281 84.63745117 C-84.09954703 84.04487812 -83.50671125 83.45230506 -82.89591075 82.84177525 C-79.92168716 79.86885674 -76.94748426 76.89591753 -73.97329164 73.92296803 C-49.31873438 49.27876912 -24.66055577 24.63819636 0 0 Z " fill="#fed501" transform="translate(1283,505)"/>
<path d="M0 0 C31.85560395 28.72485796 49.17617903 68.0969361 51.66308594 110.52978516 C52.50247445 148.14488288 38.18259291 185.68644089 12.53808594 213.11181641 C10.70112845 215.08793734 8.99747429 217.12011261 7.28808594 219.20556641 C-15.4686982 245.07971824 -52.27947525 263.61501943 -86.52441406 266.33056641 C-91.48233841 266.52270227 -96.43822155 266.57621176 -101.39941406 266.58056641 C-102.43536713 266.58157852 -102.43536713 266.58157852 -103.49224854 266.58261108 C-114.42108936 266.56567279 -124.88489767 265.96688358 -135.52441406 263.33056641 C-136.20503906 263.16959473 -136.88566406 263.00862305 -137.58691406 262.84277344 C-160.55954768 257.26569517 -181.81830426 245.91964134 -199.52441406 230.33056641 C-200.37519531 229.58935547 -201.22597656 228.84814453 -202.10253906 228.08447266 C-204.60912987 225.86621668 -207.07295818 223.60949757 -209.52441406 221.33056641 C-210.23984375 220.68087891 -210.95527344 220.03119141 -211.69238281 219.36181641 C-237.30142244 195.10553114 -254.74840894 158.968829 -256.72949219 123.67724609 C-256.82729592 119.82996647 -256.85338499 115.99153533 -256.83691406 112.14306641 C-256.83509125 111.46491882 -256.83326843 110.78677124 -256.83139038 110.08807373 C-256.7824636 99.24481504 -256.14733897 88.86873517 -253.52441406 78.33056641 C-253.358125 77.63930664 -253.19183594 76.94804687 -253.02050781 76.23583984 C-243.16433274 36.3913395 -215.54111657 1.26219455 -180.73925781 -20.02099609 C-121.23977933 -55.26103056 -50.88203557 -45.24809409 0 0 Z M-160.52441406 47.33056641 C-161.77544922 48.44044922 -161.77544922 48.44044922 -163.05175781 49.57275391 C-178.16690395 63.77959388 -187.26698738 83.13722494 -187.92944336 103.91772461 C-188.24244356 130.18856127 -177.22470762 151.76503528 -159.30175781 170.54541016 C-142.67215791 187.22178812 -120.24762597 197.47051595 -96.64941406 197.76806641 C-76.29431737 197.60886239 -58.48404746 190.13757231 -43.52441406 176.33056641 C-42.46867187 175.41210938 -42.46867187 175.41210938 -41.39160156 174.47509766 C-26.34368163 160.63691246 -18.4897675 140.25368823 -17.52832031 120.18603516 C-17.50198541 94.19348595 -29.54955904 72.55380188 -46.85644531 53.93212891 C-51.37351867 49.52748637 -56.32000559 45.87902673 -61.52441406 42.33056641 C-62.32363281 41.77626953 -63.12285156 41.22197266 -63.94628906 40.65087891 C-93.86807156 21.27200635 -133.86414939 23.45187028 -160.52441406 47.33056641 Z " fill="#fed501" transform="translate(1132.5244140625,348.66943359375)"/>
<path d="M0 0 C9.40536692 8.18720193 18.41705224 16.29604764 25.96875 26.2578125 C26.52965332 26.99692871 27.09055664 27.73604492 27.66845703 28.49755859 C51.41526515 60.27547607 62.8542734 99.50310986 57.77368164 139.0949707 C51.6018127 180.6740931 29.0925216 217.29221414 -4.40625 242.6953125 C-12.00780555 248.27753062 -20.03286039 252.94193794 -28.40625 257.2578125 C-29.00727539 257.57588867 -29.60830078 257.89396484 -30.22753906 258.22167969 C-44.4442241 265.68485445 -60.46209742 270.41718319 -76.40625 272.2578125 C-77.27636719 272.36738281 -78.14648438 272.47695312 -79.04296875 272.58984375 C-117.64362135 276.81619258 -155.85530355 264.78797163 -186.40625 241.2578125 C-187.33695312 240.55140625 -188.26765625 239.845 -189.2265625 239.1171875 C-207.87354638 224.43880369 -222.63841521 206.3638428 -233.40625 185.2578125 C-233.88118896 184.35047363 -233.88118896 184.35047363 -234.36572266 183.42480469 C-251.91155494 149.6525134 -254.07452591 109.78486724 -242.94189453 73.67553711 C-230.14211661 34.31910282 -201.37344343 0.07471147 -164.39013672 -18.75878906 C-153.43758715 -24.18788944 -142.25948873 -28.69739752 -130.40625 -31.7421875 C-129.4467041 -31.9899292 -129.4467041 -31.9899292 -128.46777344 -32.24267578 C-83.83813942 -43.08066074 -34.64963406 -29.24836757 0 0 Z M-151.40625 52.2578125 C-152.15390625 52.86238281 -152.9015625 53.46695313 -153.671875 54.08984375 C-168.86756922 66.77876528 -177.99880152 85.80981562 -180.40625 105.2578125 C-182.03974276 132.90153621 -171.00000555 155.16173219 -153.41015625 175.57421875 C-137.16370542 192.8688277 -114.13629805 202.85113249 -90.65527344 204.19873047 C-69.23725295 204.76138363 -49.97436168 195.466059 -34.40625 181.2578125 C-18.90713809 166.41288388 -10.62626431 146.26807315 -10.09375 124.9453125 C-10.5304985 99.7423551 -22.15482082 77.22512579 -39.94238281 59.74853516 C-58.24516258 42.54757588 -81.16955232 33.17298132 -106.37109375 33.9140625 C-123.37842181 34.8244146 -138.52568407 41.09626947 -151.40625 52.2578125 Z " fill="#fed501" transform="translate(556.40625,911.7421875)"/>
<path d="M0 0 C2.14802157 2.21892713 2.80687938 3.04099862 3.01171875 6.078125 C1.56440735 8.16035461 1.56440735 8.16035461 -0.66674805 10.40356445 C-1.49478439 11.2473616 -2.32282074 12.09115875 -3.1759491 12.96052551 C-4.54291679 14.31231148 -4.54291679 14.31231148 -5.9375 15.69140625 C-6.86166214 16.62035202 -7.78582428 17.54929779 -8.73799133 18.50639343 C-10.6964453 20.47222334 -12.66366946 22.4287143 -14.63745117 24.37915039 C-17.16894677 26.88215764 -19.67733185 29.40694285 -22.17958355 31.93914509 C-24.56596944 34.34792578 -26.97120856 36.7374932 -29.375 39.12890625 C-30.27619064 40.04021805 -31.17738129 40.95152985 -32.10588074 41.89045715 C-32.94967789 42.7184935 -33.79347504 43.54652985 -34.6628418 44.3996582 C-35.40310104 45.13593948 -36.14336029 45.87222076 -36.90605164 46.6308136 C-38.98828125 48.078125 -38.98828125 48.078125 -41.11238098 47.89176941 C-43.52651318 46.84467474 -45.684447 45.51912983 -47.92578125 44.140625 C-56.0011859 39.69485702 -64.02379726 38.13423116 -73.11328125 40.015625 C-84.92175316 43.55660667 -94.52845866 51.10378987 -100.36328125 61.890625 C-103.58059824 68.79966229 -105.28564435 75.0698587 -102.73828125 82.453125 C-101.49020667 85.30586691 -99.94893743 87.65064593 -97.98828125 90.078125 C-97.98828125 90.738125 -97.98828125 91.398125 -97.98828125 92.078125 C-87.56128816 97.40799424 -78.79403264 97.99518781 -67.4453125 94.58203125 C-65.55840915 93.95079322 -63.67698653 93.30298401 -61.80078125 92.640625 C-60.26055298 92.1137207 -60.26055298 92.1137207 -58.68920898 91.57617188 C-51.21283458 88.9749043 -43.87728627 86.07142847 -36.55078125 83.078125 C-2.61622684 69.24165926 37.02757182 55.93992284 73.01171875 70.078125 C94.84282825 80.08935725 110.51212619 97.22414005 120.01171875 119.078125 C127.62089768 141.07254002 124.21543228 164.11383389 114.26171875 184.796875 C107.3151584 198.63271925 98.23488213 210.47569243 87.48339844 221.55517578 C86.08318786 223.00416609 84.70689195 224.47615371 83.33203125 225.94921875 C62.59888512 247.63596655 34.51462967 261.51586314 4.32421875 262.265625 C-24.45863874 261.81659446 -48.09325259 249.19093062 -68.98828125 230.078125 C-67.48143157 226.54573477 -65.43461513 224.2819084 -62.72216797 221.58496094 C-61.84140594 220.70434998 -60.96064392 219.82373901 -60.05319214 218.91644287 C-59.09155774 217.96502069 -58.12981405 217.01370897 -57.16796875 216.0625 C-56.18390018 215.08216371 -55.20027383 214.10138332 -54.21707153 213.12017822 C-51.63385411 210.54458033 -49.04468613 207.97504643 -46.45422363 205.40673828 C-43.80960505 202.78261433 -41.17067115 200.15278729 -38.53125 197.5234375 C-33.35580053 192.3694083 -28.17405003 187.22177343 -22.98828125 182.078125 C-19.32990158 183.82784863 -16.30781651 186.02947206 -13.05078125 188.453125 C-4.57388279 194.49925471 5.42685901 198.62294237 16.01171875 197.078125 C29.28239442 194.45005339 40.81581247 187.0782425 48.76171875 176.203125 C54.69932749 167.16763344 57.35337375 160.10485201 56.01171875 149.078125 C54.25806319 142.44711492 49.60054837 137.83892176 44.01171875 134.078125 C33.81127701 128.88052521 22.29008557 130.04532258 11.5703125 133.15234375 C10.41385727 133.48131905 10.41385727 133.48131905 9.23403931 133.81694031 C1.33859038 136.14500339 -6.21397759 139.20751272 -13.78814697 142.41000366 C-17.80102202 144.10242674 -21.83151933 145.75161334 -25.86328125 147.3984375 C-26.65372833 147.72134262 -27.44417542 148.04424774 -28.25857544 148.37693787 C-38.33641151 152.46930135 -48.537914 156.05810166 -58.98828125 159.078125 C-59.7762207 159.31096191 -60.56416016 159.54379883 -61.37597656 159.78369141 C-71.68851263 162.72296057 -81.71773482 163.43703383 -92.42578125 163.515625 C-93.5869043 163.5259375 -94.74802734 163.53625 -95.94433594 163.546875 C-115.32737142 163.3473356 -131.51028349 155.7617629 -144.98828125 142.078125 C-161.98762505 123.93151855 -169.08616813 102.85495928 -168.359375 78.171875 C-167.07814106 52.33964438 -153.5105805 30.38127537 -135.98828125 12.078125 C-135.31667969 11.34335937 -134.64507813 10.60859375 -133.953125 9.8515625 C-97.50960266 -28.70364057 -41.25002806 -33.4817746 0 0 Z " fill="#fed501" transform="translate(693.98828125,704.921875)"/>
<path d="M0 0 C4.24064164 3.56519706 8.32721192 7.20270292 12.24559021 11.12533569 C12.72526326 11.60415432 13.20493631 12.08297294 13.6991449 12.57630122 C15.28284549 14.15837351 16.86297918 15.74395801 18.44311523 17.32958984 C19.58677536 18.47353244 20.73065653 19.6172541 21.8747406 20.76077271 C24.963247 23.84899347 28.04867136 26.94027665 31.13353229 30.03213835 C34.36416423 33.26904286 37.59764879 36.50309527 40.83082581 39.73745728 C46.94539813 45.85513143 53.05741794 51.97534911 59.16851431 58.09649527 C66.12907617 65.06825398 73.09249482 72.03715635 80.05614936 79.00582576 C94.37393682 93.3340516 108.68815086 107.66584278 123 122 C119.74966503 125.84738489 116.4924495 129.63338653 112.92236328 133.19116211 C112.18204865 133.93140121 111.44173401 134.67164032 110.6789856 135.43431091 C109.90062347 136.20751175 109.12226135 136.98071259 108.3203125 137.77734375 C107.10116653 138.99436729 107.10116653 138.99436729 105.85739136 140.23597717 C103.28228262 142.8055259 100.7037038 145.37155968 98.125 147.9375 C96.36956054 149.68791929 94.61434983 151.438568 92.859375 153.18945312 C88.57555918 157.46229302 84.28889528 161.73225899 80 166 C77.09702266 164.68634063 75.03091891 163.27927877 72.7855835 161.02609253 C72.17426575 160.41752411 71.562948 159.80895569 70.93310547 159.1819458 C69.94479736 158.18285187 69.94479736 158.18285187 68.93652344 157.16357422 C68.23368225 156.46102509 67.53084106 155.75847595 66.80670166 155.03463745 C64.48615375 152.71269689 62.1727692 150.38375372 59.859375 148.0546875 C58.25127053 146.44285268 56.64272375 144.83145903 55.03375244 143.2204895 C50.80102735 138.98012971 46.57434285 134.73379794 42.34887695 130.48620605 C38.03568729 126.15255457 33.71682751 121.82456212 29.3984375 117.49609375 C20.92672409 109.00293327 12.46137967 100.50345472 4 92 C-1.36131852 96.52513045 -1.36131852 96.52513045 -6.45678711 101.34326172 C-7.0368602 101.92341034 -7.61693329 102.50355896 -8.21458435 103.10128784 C-8.81279495 103.70465973 -9.41100555 104.30803162 -10.02734375 104.9296875 C-10.66112442 105.56488312 -11.29490509 106.20007874 -11.94789124 106.85452271 C-13.94681406 108.85898716 -15.94220784 110.86692214 -17.9375 112.875 C-19.30250133 114.24502389 -20.6677336 115.61481774 -22.03320312 116.984375 C-25.35814211 120.32026543 -28.67992353 123.65927036 -32 127 C-28.09516632 131.67299695 -24.03853642 136.10328418 -19.71923828 140.39428711 C-19.12339432 140.9902771 -18.52755035 141.58626709 -17.91365051 142.20031738 C-15.96823528 144.14504295 -14.01931586 146.0862148 -12.0703125 148.02734375 C-10.71103383 149.38475488 -9.3519776 150.74238879 -7.99313354 152.10023499 C-4.43454553 155.65502433 -0.87296355 159.20679893 2.68927002 162.75793457 C6.3311332 166.38952638 9.97012963 170.02398832 13.609375 173.65820312 C20.73679511 180.77493271 27.86738441 187.88847777 35 195 C33.56741228 198.27196452 31.81174684 200.43203956 29.28466797 202.94238281 C28.52403046 203.70286926 27.76339294 204.46335571 26.97970581 205.24688721 C26.15882477 206.05744568 25.33794373 206.86800415 24.4921875 207.703125 C23.65156769 208.54091492 22.81094788 209.37870483 21.94485474 210.24188232 C19.25955999 212.91598431 16.56739345 215.58304724 13.875 218.25 C12.05292845 220.06204062 10.23130823 221.87453518 8.41015625 223.6875 C3.94532748 228.13028036 -0.52516283 232.56730165 -5 237 C-9.36769886 235.3255737 -12.20122277 232.06484147 -15.42089844 228.80615234 C-16.05546463 228.1718782 -16.69003082 227.53760406 -17.34382629 226.8841095 C-19.43711882 224.78942522 -21.5232408 222.68774898 -23.609375 220.5859375 C-25.06053753 219.1310443 -26.51214267 217.67659244 -27.96417236 216.2225647 C-31.78261418 212.39649074 -35.59501149 208.56444838 -39.40618896 204.73114014 C-43.29711379 200.81974796 -47.19371428 196.91401915 -51.08984375 193.0078125 C-58.73213399 185.34407973 -66.36805174 177.67403095 -74 170 C-79.50339555 174.65792077 -79.50339555 174.65792077 -84.73217773 179.61865234 C-85.37231308 180.25886322 -86.01244843 180.8990741 -86.67198181 181.5586853 C-87.33581375 182.22767853 -87.99964569 182.89667175 -88.68359375 183.5859375 C-89.73414696 184.63861313 -89.73414696 184.63861313 -90.80592346 185.71255493 C-93.01883027 187.93101136 -95.22821416 190.15293815 -97.4375 192.375 C-98.94703314 193.88955466 -100.45679657 195.40387985 -101.96679688 196.91796875 C-105.64719732 200.60933129 -109.32451273 204.30374616 -113 208 C-108.89315123 212.90358011 -104.62402348 217.49500045 -100.06079102 221.97338867 C-99.39506577 222.63122849 -98.72934052 223.2890683 -98.04344177 223.96684265 C-96.61055236 225.38264607 -95.17661781 226.79739238 -93.74173164 228.2111721 C-90.6938497 231.2167934 -87.65543434 234.23190899 -84.61640072 237.24647236 C-78.96811768 242.84907346 -73.31599474 248.44766336 -67.64770508 254.0300293 C-63.69434884 257.92417754 -59.75315613 261.83027129 -55.81986809 265.74468422 C-54.31917435 267.23360575 -52.81394773 268.71797259 -51.30420113 270.19771385 C-49.20237276 272.25877124 -47.11637328 274.3346617 -45.03344727 276.41479492 C-44.40342804 277.02526672 -43.77340881 277.63573853 -43.1242981 278.26470947 C-41.4209137 279.98454285 -41.4209137 279.98454285 -39 283 C-39.45222984 286.8217331 -41.18248226 288.54778059 -43.87719727 291.21777344 C-44.69797256 292.03832214 -45.51874786 292.85887085 -46.36439514 293.70428467 C-47.25605881 294.58046448 -48.14772247 295.45664429 -49.06640625 296.359375 C-49.97502914 297.26375305 -50.88365204 298.1681311 -51.81980896 299.09991455 C-54.23153764 301.50020753 -56.65214002 303.89135369 -59.07470703 306.28070068 C-61.54676832 308.72203361 -64.01032305 311.17191739 -66.47460938 313.62109375 C-71.30811895 318.42246174 -76.15105773 323.21421949 -81 328 C-84.77548454 326.43120659 -87.16553294 324.08098268 -90.03668213 321.2038269 C-90.53012611 320.71209177 -91.02357009 320.22035664 -91.53196692 319.71372044 C-93.18267592 318.06630328 -94.8261392 316.41184425 -96.46972656 314.75732422 C-97.65213793 313.57434867 -98.83498994 312.39181342 -100.01824951 311.20968628 C-103.22901572 307.99949432 -106.43357446 304.78316948 -109.63706684 301.56572104 C-112.98605788 298.20423474 -116.34070655 294.84840441 -119.69476318 291.49197388 C-126.04518691 285.13533185 -132.3904948 278.77360836 -138.73398757 272.41005051 C-145.95611674 265.16557328 -153.18391994 257.92676845 -160.41220903 250.68843818 C-175.28113518 235.79860209 -190.14290942 220.90164503 -205 206 C-200.48807901 200.59307623 -195.71123255 195.57178196 -190.72366333 190.60340881 C-189.90590986 189.78480092 -189.08815639 188.96619303 -188.24562252 188.12277883 C-185.99206743 185.86786825 -183.73629959 183.61519964 -181.47955132 181.36348569 C-179.04018659 178.92845943 -176.60373311 176.49052316 -174.16691589 174.052948 C-169.9501205 169.83562951 -165.73150529 165.62013861 -161.51163101 161.40590096 C-155.41048381 155.31289792 -149.31211604 149.21711919 -143.21441232 143.12067025 C-133.32002816 133.22847203 -123.4234152 123.33850673 -113.52539062 113.44995117 C-103.91321311 103.84695963 -94.30209162 94.24291318 -84.69238281 84.63745117 C-84.09954703 84.04487812 -83.50671125 83.45230506 -82.89591075 82.84177525 C-79.92168716 79.86885674 -76.94748426 76.89591753 -73.97329164 73.92296803 C-49.31873438 49.27876912 -24.66055577 24.63819636 0 0 Z " fill="#fed501" transform="translate(1533,755)"/>
<path d="M0 0 C4.0095647 1.60858964 6.69977399 4.42594387 9.68206787 7.44155884 C10.24493224 8.00271436 10.80779662 8.56386988 11.38771749 9.14203012 C13.27335563 11.02437291 15.15175458 12.91377698 17.03027344 14.80322266 C18.3801704 16.15368372 19.73050783 17.50370463 21.08125305 18.85331726 C24.7486145 22.52010416 28.4097706 26.19303117 32.06986141 29.86707354 C35.89531785 33.70502028 39.72642706 37.5373157 43.5569458 41.37020874 C50.81047493 48.62995763 58.05889013 55.89479039 65.30549169 63.1614536 C73.55541524 71.4337207 81.81100877 79.70031924 90.0670886 87.96644139 C107.05105199 104.97131802 124.02786582 121.9833175 141 139 C139.40538831 142.36397854 137.66161218 144.58171059 135.00927734 147.21777344 C134.18857758 148.03832214 133.36787781 148.85887085 132.52230835 149.70428467 C131.19255478 151.01855438 131.19255478 151.01855438 129.8359375 152.359375 C128.92872955 153.26375305 128.02152161 154.1681311 127.08682251 155.09991455 C124.68115581 157.49796458 122.26954264 159.88994618 119.85662842 162.28070068 C117.39297656 164.72385171 114.93501423 167.17271206 112.4765625 169.62109375 C107.65626427 174.41933788 102.83030157 179.21182732 98 184 C92.28299462 179.24863726 87.02310577 174.15385413 81.78515625 168.8828125 C80.50154457 167.5970784 80.50154457 167.5970784 79.19200134 166.28536987 C76.47979535 163.56760046 73.7711017 160.84636109 71.0625 158.125 C69.21572631 156.27320658 67.36872347 154.42164166 65.52148438 152.5703125 C61.01166799 148.04951565 56.50472431 143.52587054 52 139 C47.21857752 142.99004217 42.70318791 147.15445821 38.31178284 151.56796265 C37.6769348 152.20195626 37.04208676 152.83594987 36.38800091 153.48915541 C34.27915663 155.59636357 32.17388661 157.70710547 30.06860352 159.81787109 C28.55056382 161.33619309 27.03230345 162.85429446 25.51383972 164.37219238 C21.4047054 168.48104041 17.29865639 172.59295909 13.1931622 176.70544386 C8.89749032 181.00737716 4.59897661 185.30646899 0.30076599 189.60586548 C-7.8325143 197.74225086 -15.96324261 205.88118149 -24.09305292 214.02103388 C-33.35103705 223.29020466 -42.61186898 232.55652796 -51.87293899 241.82261539 C-70.9184589 260.87858108 -89.96040695 279.93811266 -109 299 C-112.53064237 297.33584511 -114.81935682 295.42323107 -117.58496094 292.64208984 C-118.93590851 291.29091568 -118.93590851 291.29091568 -120.31414795 289.91244507 C-121.28766481 288.92871592 -122.26107125 287.9448775 -123.234375 286.9609375 C-124.23713161 285.95444872 -125.24033222 284.94840211 -126.24395752 283.94277954 C-128.87873813 281.30037853 -131.50745611 278.65202572 -134.13494873 276.00238037 C-136.81939688 273.29743948 -139.50954622 270.59818179 -142.19921875 267.8984375 C-147.47173618 262.60449826 -152.73786057 257.30425717 -158 252 C-156.7340267 249.23293667 -155.43715525 247.18765104 -153.28635979 245.04026413 C-152.73200119 244.48192343 -152.17764259 243.92358274 -151.60648525 243.34832263 C-150.9975411 242.74520416 -150.38859695 242.1420857 -149.76119995 241.52069092 C-149.11428983 240.87207195 -148.46737971 240.22345297 -147.80086625 239.55517888 C-145.62831926 237.37933324 -143.44869286 235.21072075 -141.26904297 233.04199219 C-139.71168801 231.48520126 -138.1547731 229.92797003 -136.5982666 228.37033081 C-132.36745004 224.13893942 -128.13048659 219.91375139 -123.89241552 215.68962765 C-119.46589932 211.27559712 -115.0450301 206.85591838 -110.62356567 202.43682861 C-103.20033797 195.01911481 -95.77362583 187.60490296 -88.34423828 180.19335938 C-80.69215529 172.55963613 -73.04217697 164.92381385 -65.39501953 157.28515625 C-64.92359968 156.81426184 -64.45217982 156.34336744 -63.96647452 155.8582035 C-61.60149814 153.49583721 -59.23656533 151.1334273 -56.87164855 148.77100134 C-37.25407484 129.17434397 -17.62937672 109.58483414 2 90 C1.04664778 88.88105931 0.09234011 87.76293263 -0.86236763 86.64514828 C-1.39369462 86.02240393 -1.92502161 85.39965958 -2.47244942 84.75804418 C-4.32281589 82.62847411 -6.26329871 80.61664671 -8.26123047 78.62524414 C-9.04158661 77.84496353 -9.82194275 77.06468292 -10.62594604 76.26075745 C-11.44805573 75.44380905 -12.27016541 74.62686066 -13.1171875 73.78515625 C-13.97434357 72.92941513 -14.83149963 72.07367401 -15.71463013 71.19200134 C-18.43239954 68.47979535 -21.15363891 65.7711017 -23.875 63.0625 C-25.72679342 61.21572631 -27.57835834 59.36872347 -29.4296875 57.52148438 C-33.95048435 53.01166799 -38.47412946 48.50472431 -43 44 C-38.37508621 38.44560076 -33.44639036 33.31474331 -28.3203125 28.22265625 C-27.50754852 27.41130722 -26.69478455 26.59995819 -25.85739136 25.76402283 C-23.28228262 23.1944741 -20.7037038 20.62844032 -18.125 18.0625 C-16.36956054 16.31208071 -14.61434983 14.561432 -12.859375 12.81054688 C-8.57555918 8.53770698 -4.28889528 4.26774101 0 0 Z " fill="#fed501" transform="translate(1686,909)"/>
<path d="M0 0 C4.79567444 4.00111708 9.32200079 8.17973061 13.72618103 12.60592651 C14.36511262 13.24400368 15.00404421 13.88208084 15.66233736 14.53949368 C17.7850012 16.66052125 19.90409063 18.78508297 22.02319336 20.90966797 C23.55108514 22.43784205 25.07919761 23.96579552 26.60751343 25.49354553 C30.74350639 29.62925218 34.87641397 33.76802964 39.00876689 37.90737295 C43.3324661 42.23733336 47.65900692 46.56445251 51.98524475 50.89187622 C60.17164895 59.08138558 68.35550118 67.27344021 76.53843552 75.46641648 C85.85687809 84.7960455 95.17816829 94.12282722 104.49969661 103.44937301 C123.66963057 122.62975289 142.83599269 141.81369866 162 161 C163.09884121 160.06776102 164.19628433 159.13387398 165.29316044 158.19932365 C165.90445334 157.67944811 166.51574625 157.15957256 167.14556319 156.62394321 C170.14688791 153.99566229 172.95025804 151.18061469 175.76147461 148.35205078 C176.39647888 147.71719254 177.03148315 147.08233429 177.68572998 146.42823792 C179.76031704 144.35296051 181.83135073 142.27417599 183.90234375 140.1953125 C185.34943599 138.74635295 186.79675084 137.29761568 188.24427795 135.84909058 C192.03580107 132.0537669 195.82431021 128.25544869 199.61218262 124.45648193 C203.4850689 120.57332841 207.36082152 116.69303805 211.23632812 112.8125 C218.82701408 105.21112017 226.41451649 97.60657116 234 90 C237.46311503 91.49272675 239.74099214 93.47216004 242.41723633 96.11083984 C243.28105423 96.95867035 244.14487213 97.80650085 245.03486633 98.68002319 C246.41946297 100.05657578 246.41946297 100.05657578 247.83203125 101.4609375 C248.79270571 102.4126427 249.75345613 103.36427122 250.71427917 104.31582642 C252.72266792 106.3077551 254.72664767 108.30400933 256.72827148 110.30273438 C259.29688156 112.86594136 261.88128601 115.41257403 264.46986866 117.95558739 C266.45737668 119.91340578 268.43358858 121.8823298 270.40680504 123.85454178 C271.81674244 125.25821659 273.23825771 126.65023052 274.65986633 128.04208374 C275.93195198 129.32328598 275.93195198 129.32328598 277.22973633 130.63037109 C277.9837825 131.37934662 278.73782867 132.12832214 279.51472473 132.8999939 C281 135 281 135 280.87795639 136.82357597 C279.64820049 139.87209902 277.76492348 141.60330622 275.43797302 143.92279053 C274.95934297 144.40398385 274.48071292 144.88517718 273.98757893 145.38095212 C272.38084531 146.99262985 270.76361891 148.59334643 269.14624023 150.19433594 C267.99275377 151.34697627 266.83992733 152.50027744 265.68771362 153.65419006 C262.5561258 156.78663979 259.41536416 159.9097439 256.27290225 163.03127956 C252.99104307 166.29440457 249.71765884 169.5660083 246.44337463 172.83673096 C240.24097957 179.02979598 234.03097573 185.215173 227.81821734 191.39783978 C220.74591937 198.43662363 213.68212239 205.48391222 206.61903465 212.53193617 C192.08881074 227.03078933 177.54791829 241.5189026 163 256 C159.86209555 254.6071271 157.72930012 252.98175071 155.3034544 250.56351662 C154.58077741 249.84790522 153.85810043 249.13229383 153.11352414 248.39499724 C152.32684898 247.605907 151.54017383 246.81681676 150.72966003 246.0038147 C149.88840854 245.16779988 149.04715704 244.33178506 148.18041307 243.47043645 C145.84653152 241.14897244 143.51722137 238.82308801 141.18976557 236.49519205 C138.67871024 233.98578461 136.16195981 231.48209978 133.64599609 228.97761536 C128.14722159 223.50168751 122.65591866 218.01830743 117.16602874 212.53347445 C113.73997034 209.11067195 110.31228189 205.68950513 106.8842411 202.2686882 C97.39740011 192.80140881 87.91213849 183.33255527 78.4336195 173.85694313 C77.82714811 173.25065931 77.22067673 172.6443755 76.59582742 172.01971944 C75.36633765 170.79059593 74.13684917 169.56147114 72.90736195 168.33234508 C72.29702674 167.72219269 71.68669154 167.1120403 71.05786133 166.48339844 C70.446785 165.87250265 69.83570866 165.26160687 69.20611487 164.63219909 C59.29233669 154.72196665 49.36686094 144.82354012 39.43619653 134.93023153 C29.24640205 124.77846251 19.06593714 114.6174178 8.89498597 104.44676912 C3.18172801 98.73409684 -2.53545469 93.02547871 -8.26282692 87.32695389 C-13.13679021 82.47742694 -18.00215337 77.61947651 -22.85636137 72.75017191 C-25.33499707 70.26433673 -27.8175669 67.78278507 -30.31107903 65.31186485 C-33.00913303 62.63802402 -35.68774087 59.94524316 -38.36457825 57.25015259 C-39.16240701 56.46552379 -39.96023577 55.680895 -40.78224117 54.87248957 C-41.49187941 54.15166268 -42.20151766 53.43083579 -42.9326601 52.68816566 C-43.55361287 52.06802735 -44.17456565 51.44788903 -44.81433517 50.80895865 C-46 49 -46 49 -45.80599803 46.90632665 C-44.6429012 44.15539874 -42.87262393 42.51435687 -40.75561523 40.41503906 C-39.85475693 39.51440735 -38.95389862 38.61377563 -38.02574158 37.68585205 C-37.03685152 36.71228128 -36.04779839 35.73887613 -35.05859375 34.765625 C-34.05045881 33.76308709 -33.04298554 32.75988341 -32.03614807 31.75604248 C-29.38768781 29.11902254 -26.7303417 26.49113676 -24.07104492 23.86505127 C-21.35769463 21.18241929 -18.65284395 18.49124748 -15.94726562 15.80078125 C-10.63979305 10.52545848 -5.3229043 5.25975629 0 0 Z " fill="#fed501" transform="translate(726,556)"/>
</svg>
