<svg width="24" height="30" viewBox="0 0 24 30" fill="none" xmlns="http://www.w3.org/2000/svg">
    <path d="M1.33331 4.33317V25.6665C1.33331 26.3737 1.61426 27.052 2.11436 27.5521C2.61446 28.0522 3.29274 28.3332 3.99998 28.3332H20C20.7072 28.3332 21.3855 28.0522 21.8856 27.5521C22.3857 27.052 22.6666 26.3737 22.6666 25.6665V10.1225C22.6666 9.76725 22.5956 9.41559 22.4577 9.08816C22.3199 8.76074 22.118 8.46416 21.864 8.21584L15.944 2.4265C15.4458 1.93938 14.7767 1.66659 14.08 1.6665H3.99998C3.29274 1.6665 2.61446 1.94746 2.11436 2.44755C1.61426 2.94765 1.33331 3.62593 1.33331 4.33317Z" stroke="#000064" stroke-width="2" stroke-linecap="round" stroke-linejoin="round"/>
    <path d="M14.6667 1.6665V6.99984C14.6667 7.70708 14.9476 8.38536 15.4477 8.88546C15.9478 9.38555 16.6261 9.6665 17.3333 9.6665H22.6667" stroke="#000064" stroke-width="2" stroke-linejoin="round"/>
</svg>
