<svg xmlns="http://www.w3.org/2000/svg" viewBox="200 250 600 500" width="48" height="48">
  <path fill="#000064" d="M252.17,256.84l449.97-.17c14.04.96,24.16,9.91,25.62,24.1v452.07c-2.74,21.48-20.86,29.89-39.94,20.1-32.86-16.86-64.34-38.6-97.37-55.35H252.51c-13.73-.96-23.78-10.31-25.12-24.11v-393.21c1.31-13.04,11.72-22.8,24.78-23.42ZM677,307.93h-398.85v338.39h320.96c1.21,0,5.25,1.05,6.62,1.5l71.28,40.1v-379.99Z"/>
  <path fill="#000064" d="M535.93,581.88h-50.24l-20.02-51.28-90.01.12-19.11,51.15h-48.46l88.35-226.47,1.7-.84h45.73s1.5.53,1.5.53l90.58,226.78ZM451.7,492.09l-30.96-83.71-30.95,83.71h61.91Z"/>
  <rect fill="#000064" x="558.77" y="354.6" width="46.18" height="227.28"/>
</svg>
